<svg width="12" height="15" viewBox="0 0 12 15" fill="none" xmlns="http://www.w3.org/2000/svg">
<path d="M2.33268 0.833496C1.41618 0.833496 0.666016 1.58366 0.666016 2.50016V12.8335C0.666016 13.75 1.41618 14.5002 2.33268 14.5002H9.666C10.5825 14.5002 11.3327 13.75 11.3327 12.8335V6.16683C11.3333 6.12266 11.3251 6.0788 11.3087 6.03781C11.2922 5.99683 11.2677 5.95952 11.2367 5.92806C11.2057 5.8966 11.1688 5.87163 11.128 5.85458C11.0873 5.83753 11.0435 5.82875 10.9993 5.82875C10.9552 5.82875 10.9114 5.83753 10.8707 5.85458C10.8299 5.87163 10.793 5.8966 10.762 5.92806C10.7309 5.95952 10.7065 5.99683 10.69 6.03781C10.6736 6.0788 10.6654 6.12266 10.666 6.16683V12.8335C10.666 13.3897 10.2222 13.8335 9.666 13.8335H2.33268C1.77652 13.8335 1.33268 13.3897 1.33268 12.8335V2.50016C1.33268 1.944 1.77652 1.50016 2.33268 1.50016H6.91862C6.94896 1.50016 6.96966 1.52933 6.99935 1.53337V3.8335C6.99935 4.56594 7.60024 5.16683 8.3327 5.16683H10.9993C11.0653 5.1668 11.1297 5.14724 11.1845 5.11061C11.2393 5.07398 11.282 5.02193 11.3072 4.96103C11.3324 4.90013 11.339 4.83313 11.3262 4.76848C11.3133 4.70383 11.2816 4.64444 11.235 4.59782L7.86133 1.22412C7.61148 0.973826 7.27217 0.833496 6.91862 0.833496H2.33268ZM7.66602 1.97152L10.1947 4.50016H8.3327C7.96046 4.50016 7.66602 4.20572 7.66602 3.8335V1.97152Z" fill="black"/>
</svg>
